<?xml version="1.0" encoding="UTF-8" standalone="yes"?>
<!DOCTYPE svg PUBLIC "-//W3C//DTD SVG 1.0//EN" "http://www.w3.org/TR/2001/REC-SVG-20010904/DTD/svg10.dtd">
<svg height="100%" viewBox="0 0 15.05 6" width="100%" background-color="none" xmlns="http://www.w3.org/2000/svg" xmlns:svg="http://www.w3.org/2000/svg" xmlns:xlink="http://www.w3.org/1999/xlink">

<rect dominant-baseline="central" fill-opacity="0" font-size="0.25" height="1" opacity="0.75" stroke-opacity="0" stroke-width="1" text-anchor="middle" width="2" x="1" y="1"/>
<circle cx="2" cy="1.5" dominant-baseline="central" fill="green" font-size="0.25" opacity="0.75" r="0.333333333333333" stroke-width="1" text-anchor="middle"/>
<text dominant-baseline="central" font-size="0.25" opacity="0.75" stroke-width="1" text-anchor="middle" x="2" y="1.5">i1</text>
<rect dominant-baseline="central" fill-opacity="0" font-size="0.25" height="1" opacity="0.75" stroke-opacity="0" stroke-width="1" text-anchor="middle" width="2" x="1" y="2"/>
<rect dominant-baseline="central" fill="orange" font-size="0.25" height="1" opacity="0.75" stroke-width="1" text-anchor="middle" width="1" x="1.5" y="2"/>
<text dominant-baseline="central" font-size="0.25" opacity="0.75" stroke-width="1" text-anchor="middle" x="2" y="2.5">o1</text>
<rect dominant-baseline="central" fill-opacity="0" font-size="0.25" height="2" opacity="0.75" stroke-opacity="0" stroke-width="1" text-anchor="middle" width="2" x="3" y="1"/>
<path d="M 3 1 L 4 1 L 4.01574400014327 1.00178740085295 L 4.03190134577694 1.00388375398013 L 4.04847518625833 1.00631166561899 L 4.06546734433265 1.00909478605546 L 4.08287813237399 1.01225776613435 L 4.10070615785937 1.01582619376058 L 4.11894811959815 1.01982650762678 L 4.13759859682082 1.02428588536869 L 4.15664983388783 1.02923210340706 L 4.17609152410425 1.03469336590504 L 4.19591059690357 1.04069810058036 L 4.21609101347323 1.04727471958562 L 4.236613576703 1.05445134433067 L 4.25745576210567 1.0622554939865 L 4.2785915770366 1.07071373849073 L 4.29999145606584 1.07985131816994 L 4.32162220066809 1.0896917335889 L 4.343446971421 1.10025631089887 L 4.36542534057399 1.11156374973234 L 4.38751341210502 1.12362966250633 L 4.40966401517537 1.13646611575198 L 4.43182697519737 1.15008118567111 L 4.45394946455325 1.16447854139963 L 4.47597643238706 1.17965707030038 L 4.49785110992059 1.19561055988558 L 4.51951558454555 1.21232745057267 L 4.54091143268247 1.2297906723318 L 4.56198039826942 1.24797757635851 L 4.58266510096194 1.26685997022992 L 4.60290975590231 1.28640426166522 L 4.62266088544104 1.30657171216419 L 4.64186800261521 1.32731879764631 L 4.66048424659572 1.34859766900273 L 4.67846695172599 1.37035670146931 L 4.69577813412647 1.39254111819051 L 4.71238488299772 1.41509367050106 L 4.72825964752068 1.43795535548537 L 4.74338041438279 1.46106615039183 L 4.75773077518833 1.48436574351639 L 4.77129988707892 1.50779424218023 L 4.7840823335612 1.53129284029736 L 4.79607789562403 1.55480443058963 L 4.80729124559656 1.57827414955329 L 4.81773157778374 1.60164984659379 L 4.82741219071317 1.62488247210921 L 4.8363500358851 1.64792638252564 L 4.84456524732978 1.67073956321301 L 4.85208066516388 1.69328377272331 L 4.85892136483626 1.71552461382369 L 4.86511420200242 1.73743153831622 L 4.87068738109302 1.75897779365292 L 4.87567005376011 1.78014031990437 L 4.880091951584 1.80089960578083 L 4.88398305577389 1.82123951220464 L 4.88737330514143 1.84114707146661 L 4.89029234239355 1.86061226933838 L 4.89276929778754 1.8796278167261 L 4.89483260841118 1.89818891659592 L 4.89650987077858 1.91629303102833 L 4.89782772404606 1.9339396524037 L 4.89881176092536 1.95113008191569 L 4.89948646327811 1.96786721787033 L 4.8998751593878 1.98415535556909 L 4.9 2 L 4.9 2 L 4.8998751593878 2.01584464443091 L 4.89948646327811 2.03213278212967 L 4.89881176092536 2.04886991808431 L 4.89782772404606 2.0660603475963 L 4.89650987077858 2.08370696897167 L 4.89483260841118 2.10181108340408 L 4.89276929778754 2.1203721832739 L 4.89029234239355 2.13938773066162 L 4.88737330514143 2.15885292853339 L 4.88398305577389 2.17876048779536 L 4.880091951584 2.19910039421917 L 4.87567005376011 2.21985968009563 L 4.87068738109302 2.24102220634708 L 4.86511420200242 2.26256846168378 L 4.85892136483626 2.28447538617631 L 4.85208066516388 2.30671622727669 L 4.84456524732978 2.32926043678699 L 4.8363500358851 2.35207361747436 L 4.82741219071317 2.37511752789079 L 4.81773157778374 2.39835015340621 L 4.80729124559656 2.42172585044671 L 4.79607789562403 2.44519556941037 L 4.7840823335612 2.46870715970264 L 4.77129988707892 2.49220575781977 L 4.75773077518833 2.51563425648361 L 4.74338041438279 2.53893384960817 L 4.72825964752068 2.56204464451463 L 4.71238488299772 2.58490632949894 L 4.69577813412647 2.60745888180949 L 4.67846695172599 2.62964329853069 L 4.66048424659572 2.65140233099727 L 4.64186800261521 2.67268120235369 L 4.62266088544104 2.69342828783581 L 4.60290975590231 2.71359573833478 L 4.58266510096194 2.73314002977008 L 4.56198039826942 2.75202242364149 L 4.54091143268247 2.7702093276682 L 4.51951558454555 2.78767254942733 L 4.49785110992059 2.80438944011442 L 4.47597643238706 2.82034292969962 L 4.45394946455325 2.83552145860037 L 4.43182697519737 2.84991881432889 L 4.40966401517537 2.86353388424802 L 4.38751341210502 2.87637033749367 L 4.36542534057399 2.88843625026766 L 4.343446971421 2.89974368910113 L 4.32162220066809 2.9103082664111 L 4.29999145606584 2.92014868183006 L 4.2785915770366 2.92928626150927 L 4.25745576210567 2.9377445060135 L 4.236613576703 2.94554865566933 L 4.21609101347323 2.95272528041438 L 4.19591059690357 2.95930189941964 L 4.17609152410425 2.96530663409496 L 4.15664983388783 2.97076789659294 L 4.13759859682082 2.97571411463131 L 4.11894811959815 2.98017349237322 L 4.10070615785937 2.98417380623942 L 4.08287813237399 2.98774223386565 L 4.06546734433265 2.99090521394454 L 4.04847518625833 2.99368833438101 L 4.03190134577694 2.99611624601987 L 4.01574400014327 2.99821259914705 L 4 3 L 3 3  L 3.5 2 Z" dominant-baseline="central" fill="darkBlue" fill-opacity="0.1" font-size="0.25" opacity="0.75" stroke="darkBlue" stroke-width="0.05" text-anchor="middle"/>
<text dominant-baseline="central" font-size="0.25" opacity="0.75" stroke-width="1" text-anchor="middle" x="4" y="2">or</text>
<rect dominant-baseline="central" fill-opacity="0" font-size="0.25" height="2" opacity="0.75" stroke-opacity="0" stroke-width="1" text-anchor="middle" width="2" x="3" y="3"/>
<path d="M 3 3 L 4 3 L 4.01574400014327 3.00178740085295 L 4.03190134577694 3.00388375398013 L 4.04847518625833 3.00631166561899 L 4.06546734433265 3.00909478605546 L 4.08287813237399 3.01225776613435 L 4.10070615785937 3.01582619376058 L 4.11894811959815 3.01982650762678 L 4.13759859682082 3.02428588536869 L 4.15664983388783 3.02923210340706 L 4.17609152410425 3.03469336590504 L 4.19591059690357 3.04069810058036 L 4.21609101347323 3.04727471958562 L 4.236613576703 3.05445134433067 L 4.25745576210567 3.0622554939865 L 4.2785915770366 3.07071373849073 L 4.29999145606584 3.07985131816994 L 4.32162220066809 3.0896917335889 L 4.343446971421 3.10025631089887 L 4.36542534057399 3.11156374973234 L 4.38751341210502 3.12362966250633 L 4.40966401517537 3.13646611575198 L 4.43182697519737 3.15008118567111 L 4.45394946455325 3.16447854139963 L 4.47597643238706 3.17965707030038 L 4.49785110992059 3.19561055988558 L 4.51951558454555 3.21232745057267 L 4.54091143268247 3.2297906723318 L 4.56198039826942 3.24797757635851 L 4.58266510096194 3.26685997022992 L 4.60290975590231 3.28640426166522 L 4.62266088544104 3.30657171216419 L 4.64186800261521 3.32731879764631 L 4.66048424659572 3.34859766900273 L 4.67846695172599 3.37035670146931 L 4.69577813412647 3.39254111819051 L 4.71238488299772 3.41509367050106 L 4.72825964752068 3.43795535548537 L 4.74338041438279 3.46106615039183 L 4.75773077518833 3.48436574351639 L 4.77129988707892 3.50779424218023 L 4.7840823335612 3.53129284029736 L 4.79607789562403 3.55480443058963 L 4.80729124559656 3.57827414955329 L 4.81773157778374 3.60164984659379 L 4.82741219071317 3.62488247210921 L 4.8363500358851 3.64792638252564 L 4.84456524732978 3.67073956321301 L 4.85208066516388 3.69328377272331 L 4.85892136483626 3.71552461382369 L 4.86511420200242 3.73743153831622 L 4.87068738109302 3.75897779365292 L 4.87567005376011 3.78014031990437 L 4.880091951584 3.80089960578083 L 4.88398305577389 3.82123951220464 L 4.88737330514143 3.84114707146661 L 4.89029234239355 3.86061226933838 L 4.89276929778754 3.8796278167261 L 4.89483260841118 3.89818891659592 L 4.89650987077858 3.91629303102833 L 4.89782772404606 3.9339396524037 L 4.89881176092536 3.95113008191569 L 4.89948646327811 3.96786721787033 L 4.8998751593878 3.98415535556909 L 4.9 4 L 4.9 4 L 4.8998751593878 4.01584464443091 L 4.89948646327811 4.03213278212967 L 4.89881176092536 4.04886991808431 L 4.89782772404606 4.0660603475963 L 4.89650987077858 4.08370696897167 L 4.89483260841118 4.10181108340408 L 4.89276929778754 4.1203721832739 L 4.89029234239355 4.13938773066162 L 4.88737330514143 4.15885292853339 L 4.88398305577389 4.17876048779536 L 4.880091951584 4.19910039421917 L 4.87567005376011 4.21985968009563 L 4.87068738109302 4.24102220634708 L 4.86511420200242 4.26256846168378 L 4.85892136483626 4.28447538617631 L 4.85208066516388 4.30671622727669 L 4.84456524732978 4.32926043678699 L 4.8363500358851 4.35207361747436 L 4.82741219071317 4.37511752789079 L 4.81773157778374 4.39835015340621 L 4.80729124559656 4.42172585044671 L 4.79607789562403 4.44519556941037 L 4.7840823335612 4.46870715970264 L 4.77129988707892 4.49220575781977 L 4.75773077518833 4.51563425648361 L 4.74338041438279 4.53893384960817 L 4.72825964752068 4.56204464451463 L 4.71238488299772 4.58490632949894 L 4.69577813412647 4.60745888180949 L 4.67846695172599 4.62964329853069 L 4.66048424659572 4.65140233099727 L 4.64186800261521 4.67268120235369 L 4.62266088544104 4.69342828783581 L 4.60290975590231 4.71359573833478 L 4.58266510096194 4.73314002977008 L 4.56198039826942 4.75202242364149 L 4.54091143268247 4.7702093276682 L 4.51951558454555 4.78767254942733 L 4.49785110992059 4.80438944011443 L 4.47597643238706 4.82034292969962 L 4.45394946455325 4.83552145860037 L 4.43182697519737 4.84991881432889 L 4.40966401517537 4.86353388424803 L 4.38751341210502 4.87637033749367 L 4.36542534057399 4.88843625026766 L 4.343446971421 4.89974368910113 L 4.32162220066809 4.9103082664111 L 4.29999145606584 4.92014868183006 L 4.2785915770366 4.92928626150927 L 4.25745576210567 4.9377445060135 L 4.236613576703 4.94554865566933 L 4.21609101347323 4.95272528041438 L 4.19591059690357 4.95930189941964 L 4.17609152410425 4.96530663409496 L 4.15664983388783 4.97076789659294 L 4.13759859682082 4.97571411463131 L 4.11894811959815 4.98017349237322 L 4.10070615785937 4.98417380623942 L 4.08287813237399 4.98774223386565 L 4.06546734433265 4.99090521394454 L 4.04847518625833 4.99368833438101 L 4.03190134577694 4.99611624601987 L 4.01574400014327 4.99821259914705 L 4 5 L 3 5  L 3.5 4 Z" dominant-baseline="central" fill="Blue" fill-opacity="0.1" font-size="0.25" opacity="0.75" stroke="Blue" stroke-width="0.05" text-anchor="middle"/>
<circle cx="4.9" cy="4" dominant-baseline="central" fill-opacity="0" font-size="0.25" opacity="0.75" r="0.1" stroke="gold" stroke-width="0.05" text-anchor="middle"/>
<text dominant-baseline="central" font-size="0.25" opacity="0.75" stroke-width="1" text-anchor="middle" x="4" y="4">nor</text>
<rect dominant-baseline="central" fill-opacity="0" font-size="0.25" height="2" opacity="0.75" stroke-opacity="0" stroke-width="1" text-anchor="middle" width="2" x="5" y="1"/>
<path d="M 5 1 L 6 1 L 6.01574400014327 1.00178740085295 L 6.03190134577694 1.00388375398013 L 6.04847518625833 1.00631166561899 L 6.06546734433265 1.00909478605546 L 6.08287813237399 1.01225776613435 L 6.10070615785937 1.01582619376058 L 6.11894811959815 1.01982650762678 L 6.13759859682082 1.02428588536869 L 6.15664983388783 1.02923210340706 L 6.17609152410425 1.03469336590504 L 6.19591059690357 1.04069810058036 L 6.21609101347323 1.04727471958562 L 6.236613576703 1.05445134433067 L 6.25745576210567 1.0622554939865 L 6.2785915770366 1.07071373849073 L 6.29999145606584 1.07985131816994 L 6.32162220066809 1.0896917335889 L 6.343446971421 1.10025631089887 L 6.36542534057399 1.11156374973234 L 6.38751341210502 1.12362966250633 L 6.40966401517537 1.13646611575198 L 6.43182697519737 1.15008118567111 L 6.45394946455325 1.16447854139963 L 6.47597643238706 1.17965707030038 L 6.49785110992059 1.19561055988558 L 6.51951558454555 1.21232745057267 L 6.54091143268247 1.2297906723318 L 6.56198039826942 1.24797757635851 L 6.58266510096194 1.26685997022992 L 6.60290975590231 1.28640426166522 L 6.62266088544104 1.30657171216419 L 6.64186800261521 1.32731879764631 L 6.66048424659572 1.34859766900273 L 6.67846695172599 1.37035670146931 L 6.69577813412647 1.39254111819051 L 6.71238488299772 1.41509367050106 L 6.72825964752068 1.43795535548537 L 6.74338041438279 1.46106615039183 L 6.75773077518833 1.48436574351639 L 6.77129988707892 1.50779424218023 L 6.7840823335612 1.53129284029736 L 6.79607789562403 1.55480443058963 L 6.80729124559656 1.57827414955329 L 6.81773157778374 1.60164984659379 L 6.82741219071317 1.62488247210921 L 6.8363500358851 1.64792638252564 L 6.84456524732978 1.67073956321301 L 6.85208066516388 1.69328377272331 L 6.85892136483626 1.71552461382369 L 6.86511420200242 1.73743153831622 L 6.87068738109302 1.75897779365292 L 6.87567005376011 1.78014031990437 L 6.880091951584 1.80089960578083 L 6.88398305577389 1.82123951220464 L 6.88737330514143 1.84114707146661 L 6.89029234239355 1.86061226933838 L 6.89276929778754 1.8796278167261 L 6.89483260841118 1.89818891659592 L 6.89650987077858 1.91629303102833 L 6.89782772404606 1.9339396524037 L 6.89881176092536 1.95113008191569 L 6.89948646327811 1.96786721787033 L 6.8998751593878 1.98415535556909 L 6.9 2 L 6.9 2 L 6.8998751593878 2.01584464443091 L 6.89948646327811 2.03213278212967 L 6.89881176092536 2.04886991808431 L 6.89782772404606 2.0660603475963 L 6.89650987077858 2.08370696897167 L 6.89483260841118 2.10181108340408 L 6.89276929778754 2.1203721832739 L 6.89029234239355 2.13938773066162 L 6.88737330514143 2.15885292853339 L 6.88398305577389 2.17876048779536 L 6.880091951584 2.19910039421917 L 6.87567005376011 2.21985968009563 L 6.87068738109302 2.24102220634708 L 6.86511420200242 2.26256846168378 L 6.85892136483626 2.28447538617631 L 6.85208066516388 2.30671622727669 L 6.84456524732978 2.32926043678699 L 6.8363500358851 2.35207361747436 L 6.82741219071317 2.37511752789079 L 6.81773157778374 2.39835015340621 L 6.80729124559656 2.42172585044671 L 6.79607789562403 2.44519556941037 L 6.7840823335612 2.46870715970264 L 6.77129988707892 2.49220575781977 L 6.75773077518833 2.51563425648361 L 6.74338041438279 2.53893384960817 L 6.72825964752068 2.56204464451463 L 6.71238488299772 2.58490632949894 L 6.69577813412647 2.60745888180949 L 6.67846695172599 2.62964329853069 L 6.66048424659572 2.65140233099727 L 6.64186800261521 2.67268120235369 L 6.62266088544104 2.69342828783581 L 6.60290975590231 2.71359573833478 L 6.58266510096194 2.73314002977008 L 6.56198039826942 2.75202242364149 L 6.54091143268247 2.7702093276682 L 6.51951558454555 2.78767254942733 L 6.49785110992059 2.80438944011442 L 6.47597643238706 2.82034292969962 L 6.45394946455325 2.83552145860037 L 6.43182697519737 2.84991881432889 L 6.40966401517537 2.86353388424802 L 6.38751341210502 2.87637033749367 L 6.36542534057399 2.88843625026766 L 6.343446971421 2.89974368910113 L 6.32162220066809 2.9103082664111 L 6.29999145606584 2.92014868183006 L 6.2785915770366 2.92928626150927 L 6.25745576210567 2.9377445060135 L 6.236613576703 2.94554865566933 L 6.21609101347323 2.95272528041438 L 6.19591059690357 2.95930189941964 L 6.17609152410425 2.96530663409496 L 6.15664983388783 2.97076789659294 L 6.13759859682082 2.97571411463131 L 6.11894811959815 2.98017349237322 L 6.10070615785937 2.98417380623942 L 6.08287813237399 2.98774223386565 L 6.06546734433265 2.99090521394454 L 6.04847518625833 2.99368833438101 L 6.03190134577694 2.99611624601987 L 6.01574400014327 2.99821259914705 L 6 3 L 5 3  L 5   2 Z" dominant-baseline="central" fill="darkRed" fill-opacity="0.1" font-size="0.25" opacity="0.75" stroke="darkRed" stroke-width="0.05" text-anchor="middle"/>
<text dominant-baseline="central" font-size="0.25" opacity="0.75" stroke-width="1" text-anchor="middle" x="6" y="2">and</text>
<rect dominant-baseline="central" fill-opacity="0" font-size="0.25" height="2" opacity="0.75" stroke-opacity="0" stroke-width="1" text-anchor="middle" width="2" x="5" y="3"/>
<path d="M 5 3 L 6 3 L 6.01574400014327 3.00178740085295 L 6.03190134577694 3.00388375398013 L 6.04847518625833 3.00631166561899 L 6.06546734433265 3.00909478605546 L 6.08287813237399 3.01225776613435 L 6.10070615785937 3.01582619376058 L 6.11894811959815 3.01982650762678 L 6.13759859682082 3.02428588536869 L 6.15664983388783 3.02923210340706 L 6.17609152410425 3.03469336590504 L 6.19591059690357 3.04069810058036 L 6.21609101347323 3.04727471958562 L 6.236613576703 3.05445134433067 L 6.25745576210567 3.0622554939865 L 6.2785915770366 3.07071373849073 L 6.29999145606584 3.07985131816994 L 6.32162220066809 3.0896917335889 L 6.343446971421 3.10025631089887 L 6.36542534057399 3.11156374973234 L 6.38751341210502 3.12362966250633 L 6.40966401517537 3.13646611575198 L 6.43182697519737 3.15008118567111 L 6.45394946455325 3.16447854139963 L 6.47597643238706 3.17965707030038 L 6.49785110992059 3.19561055988558 L 6.51951558454555 3.21232745057267 L 6.54091143268247 3.2297906723318 L 6.56198039826942 3.24797757635851 L 6.58266510096194 3.26685997022992 L 6.60290975590231 3.28640426166522 L 6.62266088544104 3.30657171216419 L 6.64186800261521 3.32731879764631 L 6.66048424659572 3.34859766900273 L 6.67846695172599 3.37035670146931 L 6.69577813412647 3.39254111819051 L 6.71238488299772 3.41509367050106 L 6.72825964752068 3.43795535548537 L 6.74338041438279 3.46106615039183 L 6.75773077518833 3.48436574351639 L 6.77129988707892 3.50779424218023 L 6.7840823335612 3.53129284029736 L 6.79607789562403 3.55480443058963 L 6.80729124559656 3.57827414955329 L 6.81773157778374 3.60164984659379 L 6.82741219071317 3.62488247210921 L 6.8363500358851 3.64792638252564 L 6.84456524732978 3.67073956321301 L 6.85208066516388 3.69328377272331 L 6.85892136483626 3.71552461382369 L 6.86511420200242 3.73743153831622 L 6.87068738109302 3.75897779365292 L 6.87567005376011 3.78014031990437 L 6.880091951584 3.80089960578083 L 6.88398305577389 3.82123951220464 L 6.88737330514143 3.84114707146661 L 6.89029234239355 3.86061226933838 L 6.89276929778754 3.8796278167261 L 6.89483260841118 3.89818891659592 L 6.89650987077858 3.91629303102833 L 6.89782772404606 3.9339396524037 L 6.89881176092536 3.95113008191569 L 6.89948646327811 3.96786721787033 L 6.8998751593878 3.98415535556909 L 6.9 4 L 6.9 4 L 6.8998751593878 4.01584464443091 L 6.89948646327811 4.03213278212967 L 6.89881176092536 4.04886991808431 L 6.89782772404606 4.0660603475963 L 6.89650987077858 4.08370696897167 L 6.89483260841118 4.10181108340408 L 6.89276929778754 4.1203721832739 L 6.89029234239355 4.13938773066162 L 6.88737330514143 4.15885292853339 L 6.88398305577389 4.17876048779536 L 6.880091951584 4.19910039421917 L 6.87567005376011 4.21985968009563 L 6.87068738109302 4.24102220634708 L 6.86511420200242 4.26256846168378 L 6.85892136483626 4.28447538617631 L 6.85208066516388 4.30671622727669 L 6.84456524732978 4.32926043678699 L 6.8363500358851 4.35207361747436 L 6.82741219071317 4.37511752789079 L 6.81773157778374 4.39835015340621 L 6.80729124559656 4.42172585044671 L 6.79607789562403 4.44519556941037 L 6.7840823335612 4.46870715970264 L 6.77129988707892 4.49220575781977 L 6.75773077518833 4.51563425648361 L 6.74338041438279 4.53893384960817 L 6.72825964752068 4.56204464451463 L 6.71238488299772 4.58490632949894 L 6.69577813412647 4.60745888180949 L 6.67846695172599 4.62964329853069 L 6.66048424659572 4.65140233099727 L 6.64186800261521 4.67268120235369 L 6.62266088544104 4.69342828783581 L 6.60290975590231 4.71359573833478 L 6.58266510096194 4.73314002977008 L 6.56198039826942 4.75202242364149 L 6.54091143268247 4.7702093276682 L 6.51951558454555 4.78767254942733 L 6.49785110992059 4.80438944011443 L 6.47597643238706 4.82034292969962 L 6.45394946455325 4.83552145860037 L 6.43182697519737 4.84991881432889 L 6.40966401517537 4.86353388424803 L 6.38751341210502 4.87637033749367 L 6.36542534057399 4.88843625026766 L 6.343446971421 4.89974368910113 L 6.32162220066809 4.9103082664111 L 6.29999145606584 4.92014868183006 L 6.2785915770366 4.92928626150927 L 6.25745576210567 4.9377445060135 L 6.236613576703 4.94554865566933 L 6.21609101347323 4.95272528041438 L 6.19591059690357 4.95930189941964 L 6.17609152410425 4.96530663409496 L 6.15664983388783 4.97076789659294 L 6.13759859682082 4.97571411463131 L 6.11894811959815 4.98017349237322 L 6.10070615785937 4.98417380623942 L 6.08287813237399 4.98774223386565 L 6.06546734433265 4.99090521394454 L 6.04847518625833 4.99368833438101 L 6.03190134577694 4.99611624601987 L 6.01574400014327 4.99821259914705 L 6 5 L 5 5  L 5   4 Z" dominant-baseline="central" fill="Red" fill-opacity="0.1" font-size="0.25" opacity="0.75" stroke="Red" stroke-width="0.05" text-anchor="middle"/>
<circle cx="6.9" cy="4" dominant-baseline="central" fill-opacity="0" font-size="0.25" opacity="0.75" r="0.1" stroke="gold" stroke-width="0.05" text-anchor="middle"/>
<text dominant-baseline="central" font-size="0.25" opacity="0.75" stroke-width="1" text-anchor="middle" x="6" y="4">nand</text>
<rect dominant-baseline="central" fill-opacity="0" font-size="0.25" height="2" opacity="0.75" stroke-opacity="0" stroke-width="1" text-anchor="middle" width="2" x="7" y="1"/>
<path d="M 7 1 L 8 1 L 8.01574400014326 1.00178740085295 L 8.03190134577693 1.00388375398013 L 8.04847518625833 1.00631166561899 L 8.06546734433265 1.00909478605546 L 8.08287813237399 1.01225776613435 L 8.10070615785937 1.01582619376058 L 8.11894811959815 1.01982650762678 L 8.13759859682082 1.02428588536869 L 8.15664983388783 1.02923210340706 L 8.17609152410425 1.03469336590504 L 8.19591059690357 1.04069810058036 L 8.21609101347323 1.04727471958562 L 8.236613576703 1.05445134433067 L 8.25745576210567 1.0622554939865 L 8.2785915770366 1.07071373849073 L 8.29999145606584 1.07985131816994 L 8.32162220066809 1.0896917335889 L 8.343446971421 1.10025631089887 L 8.36542534057399 1.11156374973234 L 8.38751341210503 1.12362966250633 L 8.40966401517537 1.13646611575198 L 8.43182697519737 1.15008118567111 L 8.45394946455325 1.16447854139963 L 8.47597643238706 1.17965707030038 L 8.49785110992059 1.19561055988558 L 8.51951558454555 1.21232745057267 L 8.54091143268247 1.2297906723318 L 8.56198039826942 1.24797757635851 L 8.58266510096194 1.26685997022992 L 8.60290975590231 1.28640426166522 L 8.62266088544104 1.30657171216419 L 8.6418680026152 1.32731879764631 L 8.66048424659572 1.34859766900273 L 8.67846695172599 1.37035670146931 L 8.69577813412647 1.39254111819051 L 8.71238488299772 1.41509367050106 L 8.72825964752068 1.43795535548537 L 8.74338041438279 1.46106615039183 L 8.75773077518833 1.4843657435164 L 8.77129988707892 1.50779424218023 L 8.7840823335612 1.53129284029736 L 8.79607789562403 1.55480443058963 L 8.80729124559656 1.57827414955329 L 8.81773157778374 1.60164984659379 L 8.82741219071317 1.62488247210921 L 8.8363500358851 1.64792638252564 L 8.84456524732978 1.67073956321301 L 8.85208066516388 1.69328377272331 L 8.85892136483626 1.71552461382369 L 8.86511420200242 1.73743153831622 L 8.87068738109302 1.75897779365292 L 8.87567005376011 1.78014031990438 L 8.880091951584 1.80089960578083 L 8.88398305577389 1.82123951220464 L 8.88737330514143 1.84114707146661 L 8.89029234239355 1.86061226933838 L 8.89276929778754 1.8796278167261 L 8.89483260841118 1.89818891659592 L 8.89650987077858 1.91629303102833 L 8.89782772404606 1.9339396524037 L 8.89881176092536 1.95113008191569 L 8.89948646327811 1.96786721787033 L 8.8998751593878 1.98415535556909 L 8.9 2 L 8.9 2 L 8.8998751593878 2.01584464443091 L 8.89948646327811 2.03213278212967 L 8.89881176092536 2.04886991808431 L 8.89782772404606 2.0660603475963 L 8.89650987077858 2.08370696897167 L 8.89483260841118 2.10181108340408 L 8.89276929778754 2.1203721832739 L 8.89029234239355 2.13938773066162 L 8.88737330514143 2.15885292853339 L 8.88398305577389 2.17876048779536 L 8.880091951584 2.19910039421917 L 8.87567005376011 2.21985968009563 L 8.87068738109302 2.24102220634708 L 8.86511420200242 2.26256846168378 L 8.85892136483626 2.28447538617631 L 8.85208066516388 2.30671622727669 L 8.84456524732978 2.32926043678699 L 8.8363500358851 2.35207361747436 L 8.82741219071317 2.37511752789079 L 8.81773157778374 2.39835015340621 L 8.80729124559656 2.42172585044671 L 8.79607789562403 2.44519556941037 L 8.7840823335612 2.46870715970264 L 8.77129988707892 2.49220575781977 L 8.75773077518833 2.5156342564836 L 8.74338041438279 2.53893384960817 L 8.72825964752068 2.56204464451463 L 8.71238488299772 2.58490632949894 L 8.69577813412647 2.60745888180949 L 8.67846695172599 2.62964329853069 L 8.66048424659572 2.65140233099727 L 8.6418680026152 2.67268120235369 L 8.62266088544104 2.69342828783581 L 8.60290975590231 2.71359573833478 L 8.58266510096194 2.73314002977008 L 8.56198039826942 2.75202242364149 L 8.54091143268247 2.7702093276682 L 8.51951558454555 2.78767254942733 L 8.49785110992059 2.80438944011442 L 8.47597643238706 2.82034292969962 L 8.45394946455325 2.83552145860037 L 8.43182697519737 2.84991881432889 L 8.40966401517537 2.86353388424802 L 8.38751341210503 2.87637033749367 L 8.36542534057399 2.88843625026766 L 8.343446971421 2.89974368910113 L 8.32162220066809 2.9103082664111 L 8.29999145606584 2.92014868183006 L 8.2785915770366 2.92928626150927 L 8.25745576210567 2.9377445060135 L 8.236613576703 2.94554865566933 L 8.21609101347323 2.95272528041438 L 8.19591059690357 2.95930189941964 L 8.17609152410425 2.96530663409496 L 8.15664983388783 2.97076789659294 L 8.13759859682082 2.97571411463131 L 8.11894811959815 2.98017349237322 L 8.10070615785937 2.98417380623942 L 8.08287813237399 2.98774223386565 L 8.06546734433265 2.99090521394454 L 8.04847518625833 2.99368833438101 L 8.03190134577693 2.99611624601987 L 8.01574400014326 2.99821259914705 L 8 3 L 7 3  L 7.25 2 Z" dominant-baseline="central" fill="darkGreen" fill-opacity="0.1" font-size="0.25" opacity="0.75" stroke="darkGreen" stroke-width="0.05" text-anchor="middle"/>
<path d="M 7 1      L 7.5 2 L 7 3" dominant-baseline="central" fill="darkGreen" fill-opacity="0.1" font-size="0.25" opacity="0.75" stroke="darkGreen" stroke-width="0.05" text-anchor="middle"/>
<text dominant-baseline="central" font-size="0.25" opacity="0.75" stroke-width="1" text-anchor="middle" x="8" y="2">xor</text>
<rect dominant-baseline="central" fill-opacity="0" font-size="0.25" height="2" opacity="0.75" stroke-opacity="0" stroke-width="1" text-anchor="middle" width="2" x="7" y="3"/>
<path d="M 7 3 L 8 3 L 8.01574400014326 3.00178740085295 L 8.03190134577693 3.00388375398013 L 8.04847518625833 3.00631166561899 L 8.06546734433265 3.00909478605546 L 8.08287813237399 3.01225776613435 L 8.10070615785937 3.01582619376058 L 8.11894811959815 3.01982650762678 L 8.13759859682082 3.02428588536869 L 8.15664983388783 3.02923210340706 L 8.17609152410425 3.03469336590504 L 8.19591059690357 3.04069810058036 L 8.21609101347323 3.04727471958562 L 8.236613576703 3.05445134433067 L 8.25745576210567 3.0622554939865 L 8.2785915770366 3.07071373849073 L 8.29999145606584 3.07985131816994 L 8.32162220066809 3.0896917335889 L 8.343446971421 3.10025631089887 L 8.36542534057399 3.11156374973234 L 8.38751341210503 3.12362966250633 L 8.40966401517537 3.13646611575198 L 8.43182697519737 3.15008118567111 L 8.45394946455325 3.16447854139963 L 8.47597643238706 3.17965707030038 L 8.49785110992059 3.19561055988558 L 8.51951558454555 3.21232745057267 L 8.54091143268247 3.2297906723318 L 8.56198039826942 3.24797757635851 L 8.58266510096194 3.26685997022992 L 8.60290975590231 3.28640426166522 L 8.62266088544104 3.30657171216419 L 8.6418680026152 3.32731879764631 L 8.66048424659572 3.34859766900273 L 8.67846695172599 3.37035670146931 L 8.69577813412647 3.39254111819051 L 8.71238488299772 3.41509367050106 L 8.72825964752068 3.43795535548537 L 8.74338041438279 3.46106615039183 L 8.75773077518833 3.4843657435164 L 8.77129988707892 3.50779424218023 L 8.7840823335612 3.53129284029736 L 8.79607789562403 3.55480443058963 L 8.80729124559656 3.57827414955329 L 8.81773157778374 3.60164984659379 L 8.82741219071317 3.62488247210921 L 8.8363500358851 3.64792638252564 L 8.84456524732978 3.67073956321301 L 8.85208066516388 3.69328377272331 L 8.85892136483626 3.71552461382369 L 8.86511420200242 3.73743153831622 L 8.87068738109302 3.75897779365292 L 8.87567005376011 3.78014031990437 L 8.880091951584 3.80089960578083 L 8.88398305577389 3.82123951220464 L 8.88737330514143 3.84114707146661 L 8.89029234239355 3.86061226933838 L 8.89276929778754 3.8796278167261 L 8.89483260841118 3.89818891659592 L 8.89650987077858 3.91629303102833 L 8.89782772404606 3.9339396524037 L 8.89881176092536 3.95113008191569 L 8.89948646327811 3.96786721787033 L 8.8998751593878 3.98415535556909 L 8.9 4 L 8.9 4 L 8.8998751593878 4.01584464443091 L 8.89948646327811 4.03213278212967 L 8.89881176092536 4.04886991808431 L 8.89782772404606 4.0660603475963 L 8.89650987077858 4.08370696897167 L 8.89483260841118 4.10181108340408 L 8.89276929778754 4.1203721832739 L 8.89029234239355 4.13938773066162 L 8.88737330514143 4.15885292853339 L 8.88398305577389 4.17876048779536 L 8.880091951584 4.19910039421917 L 8.87567005376011 4.21985968009562 L 8.87068738109302 4.24102220634708 L 8.86511420200242 4.26256846168378 L 8.85892136483626 4.28447538617631 L 8.85208066516388 4.30671622727669 L 8.84456524732978 4.32926043678699 L 8.8363500358851 4.35207361747436 L 8.82741219071317 4.37511752789079 L 8.81773157778374 4.39835015340621 L 8.80729124559656 4.42172585044671 L 8.79607789562403 4.44519556941037 L 8.7840823335612 4.46870715970264 L 8.77129988707892 4.49220575781977 L 8.75773077518833 4.51563425648361 L 8.74338041438279 4.53893384960817 L 8.72825964752068 4.56204464451463 L 8.71238488299772 4.58490632949894 L 8.69577813412647 4.60745888180949 L 8.67846695172599 4.62964329853069 L 8.66048424659572 4.65140233099727 L 8.6418680026152 4.67268120235369 L 8.62266088544104 4.69342828783581 L 8.60290975590231 4.71359573833478 L 8.58266510096194 4.73314002977007 L 8.56198039826942 4.75202242364149 L 8.54091143268247 4.7702093276682 L 8.51951558454555 4.78767254942733 L 8.49785110992059 4.80438944011442 L 8.47597643238706 4.82034292969962 L 8.45394946455325 4.83552145860037 L 8.43182697519737 4.84991881432889 L 8.40966401517537 4.86353388424802 L 8.38751341210503 4.87637033749367 L 8.36542534057399 4.88843625026766 L 8.343446971421 4.89974368910113 L 8.32162220066809 4.9103082664111 L 8.29999145606584 4.92014868183006 L 8.2785915770366 4.92928626150927 L 8.25745576210567 4.9377445060135 L 8.236613576703 4.94554865566933 L 8.21609101347323 4.95272528041438 L 8.19591059690357 4.95930189941964 L 8.17609152410425 4.96530663409496 L 8.15664983388783 4.97076789659294 L 8.13759859682082 4.97571411463131 L 8.11894811959815 4.98017349237322 L 8.10070615785937 4.98417380623942 L 8.08287813237399 4.98774223386565 L 8.06546734433265 4.99090521394454 L 8.04847518625833 4.99368833438101 L 8.03190134577693 4.99611624601987 L 8.01574400014326 4.99821259914705 L 8 5 L 7 5  L 7.25 4 Z" dominant-baseline="central" fill="seaGreen" fill-opacity="0.1" font-size="0.25" opacity="0.75" stroke="seaGreen" stroke-width="0.05" text-anchor="middle"/>
<path d="M 7 3      L 7.5 4 L 7 5" dominant-baseline="central" fill="seaGreen" fill-opacity="0.1" font-size="0.25" opacity="0.75" stroke="seaGreen" stroke-width="0.05" text-anchor="middle"/>
<circle cx="8.9" cy="4" dominant-baseline="central" fill-opacity="0" font-size="0.25" opacity="0.75" r="0.1" stroke="gold" stroke-width="0.05" text-anchor="middle"/>
<text dominant-baseline="central" font-size="0.25" opacity="0.75" stroke-width="1" text-anchor="middle" x="8" y="4">nxor</text>
<rect dominant-baseline="central" fill-opacity="0" font-size="0.25" height="2" opacity="0.75" stroke-opacity="0" stroke-width="1" text-anchor="middle" width="2" x="9" y="1"/>
<path d="M 9 1 L 10 2 L 9 3 L 10.9 3 L10.9 1 Z " dominant-baseline="central" fill="teal" fill-opacity="0.1" font-size="0.25" opacity="0.75" stroke="teal" stroke-width="0.05" text-anchor="middle"/>
<text dominant-baseline="central" font-size="0.25" opacity="0.75" stroke-width="1" text-anchor="middle" x="10" y="2">lt</text>
<rect dominant-baseline="central" fill-opacity="0" font-size="0.25" height="2" opacity="0.75" stroke-opacity="0" stroke-width="1" text-anchor="middle" width="2" x="9" y="3"/>
<path d="M 9 3 L 10 4 L 9 5 L 10.9 5 L10.9 3 Z " dominant-baseline="central" fill="turquoise" fill-opacity="0.1" font-size="0.25" opacity="0.75" stroke="turquoise" stroke-width="0.05" text-anchor="middle"/>
<circle cx="10.9" cy="4" dominant-baseline="central" fill-opacity="0" font-size="0.25" opacity="0.75" r="0.1" stroke="gold" stroke-width="0.05" text-anchor="middle"/>
<text dominant-baseline="central" font-size="0.25" opacity="0.75" stroke-width="1" text-anchor="middle" x="10" y="4">nlt</text>
<rect dominant-baseline="central" fill-opacity="0" font-size="0.25" height="2" opacity="0.75" stroke-opacity="0" stroke-width="1" text-anchor="middle" width="2" x="11" y="1"/>
<path d="M 11 1 L 12.9 1 L 12 2 L 12.9 3 L11 3 Z " dominant-baseline="central" fill="orangered" fill-opacity="0.1" font-size="0.25" opacity="0.75" stroke="orangered" stroke-width="0.05" text-anchor="middle"/>
<text dominant-baseline="central" font-size="0.25" opacity="0.75" stroke-width="1" text-anchor="middle" x="12" y="2">gt</text>
<rect dominant-baseline="central" fill-opacity="0" font-size="0.25" height="2" opacity="0.75" stroke-opacity="0" stroke-width="1" text-anchor="middle" width="2" x="11" y="3"/>
<path d="M 11 3 L 12.9 3 L 12 4 L 12.9 5 L11 5 Z " dominant-baseline="central" fill="orange" fill-opacity="0.1" font-size="0.25" opacity="0.75" stroke="orange" stroke-width="0.05" text-anchor="middle"/>
<circle cx="12.9" cy="4" dominant-baseline="central" fill-opacity="0" font-size="0.25" opacity="0.75" r="0.1" stroke="gold" stroke-width="0.05" text-anchor="middle"/>
<text dominant-baseline="central" font-size="0.25" opacity="0.75" stroke-width="1" text-anchor="middle" x="12" y="4">ngt</text>
<rect dominant-baseline="central" fill-opacity="0" font-size="0.25" height="1" opacity="0.75" stroke-opacity="0" stroke-width="1" text-anchor="middle" width="2" x="13" y="1"/>
<path d="M 13 1 L 14.9 1.5 L 13 2 Z" dominant-baseline="central" fill="chocolate" fill-opacity="0.1" font-size="0.25" opacity="0.75" stroke="chocolate" stroke-width="0.05" text-anchor="middle"/>
<text dominant-baseline="central" font-size="0.25" opacity="0.75" stroke-width="1" text-anchor="middle" x="14" y="1.5">cont</text>
<rect dominant-baseline="central" fill-opacity="0" font-size="0.25" height="1" opacity="0.75" stroke-opacity="0" stroke-width="1" text-anchor="middle" width="2" x="13" y="2"/>
<path d="M 13 2 L 14.9 2.5 L 13 3 Z" dominant-baseline="central" fill="red" fill-opacity="0.1" font-size="0.25" opacity="0.75" stroke="red" stroke-width="0.05" text-anchor="middle"/>
<circle cx="14.9" cy="2.5" dominant-baseline="central" fill-opacity="0" font-size="0.25" opacity="0.75" r="0.1" stroke="gold" stroke-width="0.05" text-anchor="middle"/>
<text dominant-baseline="central" font-size="0.25" opacity="0.75" stroke-width="1" text-anchor="middle" x="14" y="2.5">not</text>
<rect dominant-baseline="central" fill-opacity="0" font-size="0.25" height="1" opacity="0.75" stroke-opacity="0" stroke-width="1" text-anchor="middle" width="2" x="13" y="3"/>
<text dominant-baseline="central" fill="Navy" fill-opacity="1" font-size="1" opacity="0.75" stroke-width="1" text-anchor="middle" x="14" y="3.5">1</text>
<rect dominant-baseline="central" fill-opacity="0" font-size="0.25" height="1" opacity="0.75" stroke="Navy" stroke-opacity="1" stroke-width="0.025" text-anchor="middle" width="1" x="13.5" y="3"/>
<text dominant-baseline="central" font-size="0.25" opacity="0.75" stroke-width="1" text-anchor="middle" x="14" y="3.5">one</text>
<rect dominant-baseline="central" fill-opacity="0" font-size="0.25" height="1" opacity="0.75" stroke-opacity="0" stroke-width="1" text-anchor="middle" width="2" x="13" y="4"/>
<text dominant-baseline="central" fill="gray" fill-opacity="1" font-size="1" opacity="0.75" stroke-width="1" text-anchor="middle" x="14" y="4.5">0</text>
<rect dominant-baseline="central" fill-opacity="0" font-size="0.25" height="1" opacity="0.75" stroke="gray" stroke-opacity="1" stroke-width="0.025" text-anchor="middle" width="1" x="13.5" y="4"/>
<text dominant-baseline="central" font-size="0.25" opacity="0.75" stroke-width="1" text-anchor="middle" x="14" y="4.5">zero</text>
<rect dominant-baseline="central" fill-opacity="0" font-size="0.25" height="2" opacity="0.75" stroke-opacity="0" stroke-width="1" text-anchor="middle" width="2" x="1" y="3"/>
<path d="M 1 4  2 3 L 2.01574400014327 3.00178740085295 L 2.03190134577694 3.00388375398013 L 2.04847518625833 3.00631166561899 L 2.06546734433265 3.00909478605546 L 2.08287813237399 3.01225776613435 L 2.10070615785937 3.01582619376058 L 1 4 L 2.13759859682082 3.02428588536869 L 2.15664983388783 3.02923210340706 L 2.17609152410425 3.03469336590504 L 2.19591059690357 3.04069810058036 L 2.21609101347323 3.04727471958562 L 2.236613576703 3.05445134433067 L 2.25745576210567 3.0622554939865 L 1 4 L 2.29999145606584 3.07985131816994 L 2.32162220066809 3.0896917335889 L 2.343446971421 3.10025631089887 L 2.36542534057399 3.11156374973234 L 2.38751341210502 3.12362966250633 L 2.40966401517537 3.13646611575198 L 2.43182697519737 3.15008118567111 L 1 4 L 2.47597643238706 3.17965707030038 L 2.49785110992059 3.19561055988558 L 2.51951558454555 3.21232745057267 L 2.54091143268247 3.2297906723318 L 2.56198039826942 3.24797757635851 L 2.58266510096194 3.26685997022992 L 2.60290975590231 3.28640426166522 L 1 4 L 2.64186800261521 3.32731879764631 L 2.66048424659572 3.34859766900273 L 2.67846695172599 3.37035670146931 L 2.69577813412647 3.39254111819051 L 2.71238488299772 3.41509367050106 L 2.72825964752068 3.43795535548537 L 2.74338041438279 3.46106615039183 L 1 4 L 2.77129988707892 3.50779424218023 L 2.7840823335612 3.53129284029736 L 2.79607789562403 3.55480443058963 L 2.80729124559656 3.57827414955329 L 2.81773157778374 3.60164984659379 L 2.82741219071317 3.62488247210921 L 2.8363500358851 3.64792638252564 L 1 4 L 2.85208066516388 3.69328377272331 L 2.85892136483626 3.71552461382369 L 2.86511420200242 3.73743153831622 L 2.87068738109302 3.75897779365292 L 2.87567005376011 3.78014031990437 L 2.880091951584 3.80089960578083 L 2.88398305577389 3.82123951220464 L 1 4 L 2.89029234239355 3.86061226933838 L 2.89276929778754 3.8796278167261 L 2.89483260841118 3.89818891659592 L 2.89650987077858 3.91629303102833 L 2.89782772404606 3.9339396524037 L 2.89881176092536 3.95113008191569 L 2.89948646327811 3.96786721787033 L 1 4 L 2.9 4 L 2.9 4 L 2.8998751593878 4.01584464443091 L 2.89948646327811 4.03213278212967 L 2.89881176092536 4.04886991808431 L 2.89782772404606 4.0660603475963 L 2.89650987077858 4.08370696897167 L 1 4 L 2.89276929778754 4.1203721832739 L 2.89029234239355 4.13938773066162 L 2.88737330514143 4.15885292853339 L 2.88398305577389 4.17876048779536 L 2.880091951584 4.19910039421917 L 2.87567005376011 4.21985968009563 L 2.87068738109302 4.24102220634708 L 1 4 L 2.85892136483626 4.28447538617631 L 2.85208066516388 4.30671622727669 L 2.84456524732978 4.32926043678699 L 2.8363500358851 4.35207361747436 L 2.82741219071317 4.37511752789079 L 2.81773157778374 4.39835015340621 L 2.80729124559656 4.42172585044671 L 1 4 L 2.7840823335612 4.46870715970264 L 2.77129988707892 4.49220575781977 L 2.75773077518833 4.51563425648361 L 2.74338041438279 4.53893384960817 L 2.72825964752068 4.56204464451463 L 2.71238488299772 4.58490632949894 L 2.69577813412647 4.60745888180949 L 1 4 L 2.66048424659572 4.65140233099727 L 2.64186800261521 4.67268120235369 L 2.62266088544104 4.69342828783581 L 2.60290975590231 4.71359573833478 L 2.58266510096194 4.73314002977008 L 2.56198039826942 4.75202242364149 L 2.54091143268247 4.7702093276682 L 1 4 L 2.49785110992059 4.80438944011443 L 2.47597643238706 4.82034292969962 L 2.45394946455325 4.83552145860037 L 2.43182697519737 4.84991881432889 L 2.40966401517537 4.86353388424802 L 2.38751341210502 4.87637033749367 L 2.36542534057399 4.88843625026766 L 1 4 L 2.32162220066809 4.91030826641109 L 2.29999145606584 4.92014868183006 L 2.2785915770366 4.92928626150927 L 2.25745576210567 4.9377445060135 L 2.236613576703 4.94554865566933 L 2.21609101347323 4.95272528041438 L 2.19591059690357 4.95930189941964 L 1 4 L 2.15664983388783 4.97076789659294 L 2.13759859682082 4.97571411463131 L 2.11894811959816 4.98017349237322 L 2.10070615785937 4.98417380623942 L 2.08287813237399 4.98774223386565 L 2.06546734433265 4.99090521394454 L 2.04847518625833 4.99368833438101 L 1 4 L 2.01574400014327 4.99821259914705 " dominant-baseline="central" fill="steelblue" fill-opacity="0.1" font-size="0.25" opacity="0.75" stroke="steelblue" stroke-width="0.05" text-anchor="middle"/>
<text dominant-baseline="central" font-size="0.25" opacity="0.75" stroke-width="1" text-anchor="middle" x="2" y="4">fan out</text>
<line dominant-baseline="hanging" font-size="0.25" opacity="0.2" stroke="black" stroke-width="0.015625" text-anchor="start" x1="0" x2="0" y1="0" y2="6"/>
<text dominant-baseline="hanging" fill="black" font-size="0.25" opacity="1" stroke="black" stroke-width="0.015625" text-anchor="start" x="0" y="0">0</text>
<line dominant-baseline="hanging" font-size="0.25" opacity="0.2" stroke="black" stroke-width="0.015625" text-anchor="start" x1="1" x2="1" y1="0" y2="6"/>
<text dominant-baseline="hanging" fill="black" font-size="0.25" opacity="1" stroke="black" stroke-width="0.015625" text-anchor="start" x="1" y="0">1</text>
<line dominant-baseline="hanging" font-size="0.25" opacity="0.2" stroke="black" stroke-width="0.015625" text-anchor="start" x1="2" x2="2" y1="0" y2="6"/>
<text dominant-baseline="hanging" fill="black" font-size="0.25" opacity="1" stroke="black" stroke-width="0.015625" text-anchor="start" x="2" y="0">2</text>
<line dominant-baseline="hanging" font-size="0.25" opacity="0.2" stroke="black" stroke-width="0.015625" text-anchor="start" x1="3" x2="3" y1="0" y2="6"/>
<text dominant-baseline="hanging" fill="black" font-size="0.25" opacity="1" stroke="black" stroke-width="0.015625" text-anchor="start" x="3" y="0">3</text>
<line dominant-baseline="hanging" font-size="0.25" opacity="0.2" stroke="black" stroke-width="0.015625" text-anchor="start" x1="4" x2="4" y1="0" y2="6"/>
<text dominant-baseline="hanging" fill="black" font-size="0.25" opacity="1" stroke="black" stroke-width="0.015625" text-anchor="start" x="4" y="0">4</text>
<line dominant-baseline="hanging" font-size="0.25" opacity="0.2" stroke="black" stroke-width="0.015625" text-anchor="start" x1="5" x2="5" y1="0" y2="6"/>
<text dominant-baseline="hanging" fill="black" font-size="0.25" opacity="1" stroke="black" stroke-width="0.015625" text-anchor="start" x="5" y="0">5</text>
<line dominant-baseline="hanging" font-size="0.25" opacity="0.2" stroke="black" stroke-width="0.015625" text-anchor="start" x1="6" x2="6" y1="0" y2="6"/>
<text dominant-baseline="hanging" fill="black" font-size="0.25" opacity="1" stroke="black" stroke-width="0.015625" text-anchor="start" x="6" y="0">6</text>
<line dominant-baseline="hanging" font-size="0.25" opacity="0.2" stroke="black" stroke-width="0.015625" text-anchor="start" x1="7" x2="7" y1="0" y2="6"/>
<text dominant-baseline="hanging" fill="black" font-size="0.25" opacity="1" stroke="black" stroke-width="0.015625" text-anchor="start" x="7" y="0">7</text>
<line dominant-baseline="hanging" font-size="0.25" opacity="0.2" stroke="black" stroke-width="0.015625" text-anchor="start" x1="8" x2="8" y1="0" y2="6"/>
<text dominant-baseline="hanging" fill="black" font-size="0.25" opacity="1" stroke="black" stroke-width="0.015625" text-anchor="start" x="8" y="0">8</text>
<line dominant-baseline="hanging" font-size="0.25" opacity="0.2" stroke="black" stroke-width="0.015625" text-anchor="start" x1="9" x2="9" y1="0" y2="6"/>
<text dominant-baseline="hanging" fill="black" font-size="0.25" opacity="1" stroke="black" stroke-width="0.015625" text-anchor="start" x="9" y="0">9</text>
<line dominant-baseline="hanging" font-size="0.25" opacity="0.2" stroke="black" stroke-width="0.015625" text-anchor="start" x1="10" x2="10" y1="0" y2="6"/>
<text dominant-baseline="hanging" fill="black" font-size="0.25" opacity="1" stroke="black" stroke-width="0.015625" text-anchor="start" x="10" y="0">10</text>
<line dominant-baseline="hanging" font-size="0.25" opacity="0.2" stroke="black" stroke-width="0.015625" text-anchor="start" x1="11" x2="11" y1="0" y2="6"/>
<text dominant-baseline="hanging" fill="black" font-size="0.25" opacity="1" stroke="black" stroke-width="0.015625" text-anchor="start" x="11" y="0">11</text>
<line dominant-baseline="hanging" font-size="0.25" opacity="0.2" stroke="black" stroke-width="0.015625" text-anchor="start" x1="12" x2="12" y1="0" y2="6"/>
<text dominant-baseline="hanging" fill="black" font-size="0.25" opacity="1" stroke="black" stroke-width="0.015625" text-anchor="start" x="12" y="0">12</text>
<line dominant-baseline="hanging" font-size="0.25" opacity="0.2" stroke="black" stroke-width="0.015625" text-anchor="start" x1="13" x2="13" y1="0" y2="6"/>
<text dominant-baseline="hanging" fill="black" font-size="0.25" opacity="1" stroke="black" stroke-width="0.015625" text-anchor="start" x="13" y="0">13</text>
<line dominant-baseline="hanging" font-size="0.25" opacity="0.2" stroke="black" stroke-width="0.015625" text-anchor="start" x1="14" x2="14" y1="0" y2="6"/>
<text dominant-baseline="hanging" fill="black" font-size="0.25" opacity="1" stroke="black" stroke-width="0.015625" text-anchor="start" x="14" y="0">14</text>
<line dominant-baseline="hanging" font-size="0.25" opacity="0.2" stroke="black" stroke-width="0.015625" text-anchor="start" x1="15" x2="15" y1="0" y2="6"/>
<line dominant-baseline="hanging" font-size="0.25" opacity="0.2" stroke="black" stroke-width="0.015625" text-anchor="start" x1="0" x2="15.05" y1="0" y2="0"/>
<text dominant-baseline="hanging" fill="black" font-size="0.25" opacity="1" stroke="black" stroke-width="0.015625" text-anchor="start" x="0" y="0">0</text>
<line dominant-baseline="hanging" font-size="0.25" opacity="0.2" stroke="black" stroke-width="0.015625" text-anchor="start" x1="0" x2="15.05" y1="1" y2="1"/>
<text dominant-baseline="hanging" fill="black" font-size="0.25" opacity="1" stroke="black" stroke-width="0.015625" text-anchor="start" x="0" y="1">1</text>
<line dominant-baseline="hanging" font-size="0.25" opacity="0.2" stroke="black" stroke-width="0.015625" text-anchor="start" x1="0" x2="15.05" y1="2" y2="2"/>
<text dominant-baseline="hanging" fill="black" font-size="0.25" opacity="1" stroke="black" stroke-width="0.015625" text-anchor="start" x="0" y="2">2</text>
<line dominant-baseline="hanging" font-size="0.25" opacity="0.2" stroke="black" stroke-width="0.015625" text-anchor="start" x1="0" x2="15.05" y1="3" y2="3"/>
<text dominant-baseline="hanging" fill="black" font-size="0.25" opacity="1" stroke="black" stroke-width="0.015625" text-anchor="start" x="0" y="3">3</text>
<line dominant-baseline="hanging" font-size="0.25" opacity="0.2" stroke="black" stroke-width="0.015625" text-anchor="start" x1="0" x2="15.05" y1="4" y2="4"/>
<text dominant-baseline="hanging" fill="black" font-size="0.25" opacity="1" stroke="black" stroke-width="0.015625" text-anchor="start" x="0" y="4">4</text>
<line dominant-baseline="hanging" font-size="0.25" opacity="0.2" stroke="black" stroke-width="0.015625" text-anchor="start" x1="0" x2="15.05" y1="5" y2="5"/>
<text dominant-baseline="hanging" fill="black" font-size="0.25" opacity="1" stroke="black" stroke-width="0.015625" text-anchor="start" x="0" y="5">5</text>
<line dominant-baseline="hanging" font-size="0.25" opacity="0.2" stroke="black" stroke-width="0.015625" text-anchor="start" x1="0" x2="15.05" y1="6" y2="6"/>
</svg>
